<svg xmlns="http://www.w3.org/2000/svg" version="1.1" xmlns:xlink="http://www.w3.org/1999/xlink" xmlns:svgjs="http://svgjs.dev/svgjs" width="1500" height="1500" viewBox="0 0 1500 1500"><rect width="1500" height="1500" fill="#ffffff"></rect><g transform="matrix(0.6666666666666666,0,0,0.6666666666666666,249.39393939393938,438.5856950067477)"><svg viewBox="0 0 396 247" data-background-color="#ffffff" preserveAspectRatio="xMidYMid meet" height="935" width="1500" xmlns="http://www.w3.org/2000/svg" xmlns:xlink="http://www.w3.org/1999/xlink"><g id="tight-bounds" transform="matrix(1,0,0,1,0.2400000000000091,-0.09999999999999432)"><svg viewBox="0 0 395.52 247.2" height="247.2" width="395.52"><g><svg></svg></g><g><svg viewBox="0 0 395.52 247.2" height="247.2" width="395.52"><mask id="f547fa37-0b00-4a0c-990d-0225f1b6bda9"><rect width="640" height="400" fill="white"></rect><rect width="348.05760000000004" height="44.51813498173608" fill="black" y="101.34093250913196" x="23.731199999999973" id="transform-me"></rect></mask><g transform="matrix(1,0,0,1,39.55199999999999,108.47991220276978)"><svg viewBox="0 0 316.416 30.24017559446041" height="30.24017559446041" width="316.416"><g><svg viewBox="0 0 316.416 30.24017559446041" height="30.24017559446041" width="316.416"><g><svg viewBox="0 0 316.416 30.24017559446041" height="30.24017559446041" width="316.416"><g><svg viewBox="0 0 316.416 30.24017559446041" height="30.24017559446041" width="316.416"><g id="textblocktransform"><svg viewBox="0 0 316.416 30.24017559446041" height="30.24017559446041" width="316.416" id="textblock"><g><svg viewBox="0 0 316.416 30.24017559446041" height="30.24017559446041" width="316.416"><g transform="matrix(1,0,0,1,0,0)"><svg width="316.416" viewBox="3.91 -34.62 373.7 35.72" height="30.24017559446041" data-palette-color="#ef86c1"><path d="M25.73-2.1L25.73-2.1Q26.98-2.1 26.98-1.12L26.98-1.12Q26.98-0.68 26.44-0.34 25.9 0 24.58 0L24.58 0 3.91 0 3.91-34.55Q13.53-34.55 23.14-34.55L23.14-34.55 25.15-34.62Q26.98-34.62 26.98-33.54L26.98-33.54Q26.98-33.13 26.67-32.78 26.37-32.42 25.98-32.42L25.98-32.42Q25.34-32.42 24.63-32.57L24.63-32.57Q23.58-32.79 21.75-32.79L21.75-32.79 16.36-32.79 16.36-25.34 20.8-25.34Q20.8-25.34 23.8-25.46L23.8-25.46Q24.34-25.46 24.72-25.21 25.1-24.95 25.1-24.49L25.1-24.49Q25.1-23.46 23.73-23.46L23.73-23.46 22.68-23.49Q21.88-23.56 21.34-23.56L21.34-23.56 16.36-23.56 16.36-1.78 21.75-1.78Q23.56-1.78 24.32-1.93L24.32-1.93Q25.22-2.1 25.73-2.1ZM42.7 1.1L29.29-26.07 40.35-26.07 46.99-12.38 51.17-20.68Q52.46-23.34 52.79-24.63 53.12-25.93 53.45-26.22 53.78-26.51 54.26-26.51 54.73-26.51 55-26.2 55.27-25.88 55.27-25.56 55.27-25.24 55.21-24.93 55.15-24.61 54.98-24.07L54.98-24.07Q54.61-23.07 53.44-20.61L53.44-20.61 42.7 1.1ZM82.17-5.93L82.17-5.93Q83.12-5.93 83.12-5.05L83.12-5.05Q83.12-4.39 82.27-3.49L82.27-3.49Q78.41 0.46 71.7 0.46L71.7 0.46Q65.67 0.46 61.54-3.17L61.54-3.17Q57.27-6.96 57.27-12.74L57.27-12.74Q57.27-18.65 61.13-22.46L61.13-22.46Q65.2-26.51 71.97-26.51L71.97-26.51Q77.39-26.51 81.07-23.22L81.07-23.22Q85.05-19.68 85.05-13.92L85.05-13.92Q85.05-13.09 85-12.16L85-12.16 68.89-12.16 68.89-1.68Q70.55-1.34 72.63-1.34L72.63-1.34Q77.02-1.34 80.12-4.25L80.12-4.25Q80.76-4.88 81.03-5.25L81.03-5.25Q81.59-5.93 82.17-5.93ZM75.65-13.94L75.65-24.27Q74.07-24.73 72.07-24.73 70.06-24.73 68.89-24.46L68.89-24.46 68.89-13.94 75.65-13.94ZM109.32 0L109.32-23.41Q108.71-23.8 108-23.8 107.29-23.8 106.54-23.47 105.78-23.14 104.95-22.56L104.95-22.56Q103.22-21.31 101.75-19.24L101.75-19.24 101.75 0 91.25 0 91.25-26.07 101.75-26.07 101.75-21.9Q105.93-26.51 111.2-26.51L111.2-26.51Q119.82-26.51 119.82-18.16L119.82-18.16 119.82 0 109.32 0ZM137.83 0.46L137.83 0.46Q128.26 0.46 128.26-8.28L128.26-8.28 128.24-24.29 125.43-24.17Q124.11-24.17 124.11-25.17 124.11-26.17 125.53-26.17L125.53-26.17 127.87-26.07 128.24-26.07 128.24-29.86 138.71-34.55 138.71-26.07 141.98-26.07 144.3-26.17Q145.74-26.17 145.74-25.15L145.74-25.15Q145.74-24.68 145.34-24.43 144.94-24.17 144.42-24.17L144.42-24.17 141.4-24.29 138.71-24.29 138.71-1.34Q141.57-1.39 143.47-2.98L143.47-2.98Q144.37-3.66 144.75-4.74 145.13-5.81 145.44-6.12 145.74-6.42 146.16-6.42L146.16-6.42Q146.57-6.42 146.87-6.09 147.16-5.76 147.16-5.31 147.16-4.86 146.91-4.31 146.67-3.76 146.18-3.15L146.18-3.15Q145.08-1.78 143.64-0.98L143.64-0.98Q141.03 0.46 137.83 0.46ZM178.7-10.13L178.7-10.13 180.87-10.03Q185.61-10.03 188.68-13.16L188.68-13.16Q191.81-16.31 191.95-21.31L191.95-21.31Q192.22-29.03 184.53-31.74L184.53-31.74Q181.65-32.76 177.04-32.76L177.04-32.76 174.99-32.76 174.99 0 162.53 0 162.53-34.55 171.88-34.55Q179.45-34.55 181.02-34.33 182.58-34.11 184.27-33.76 185.97-33.42 187.94-32.28 189.9-31.13 191.27-29.54L191.27-29.54Q194.03-26.32 193.93-21.97L193.93-21.97Q193.78-16.43 190.68-12.74L190.68-12.74Q187.53-9.03 181.99-8.15L181.99-8.15Q180.38-7.93 179.45-7.93L179.45-7.93Q177.26-7.93 177.26-9.13L177.26-9.13Q177.26-9.57 177.65-9.85 178.04-10.13 178.7-10.13ZM199.47 0L199.47-34.55 209.97-34.55 209.97 0 199.47 0ZM234.28 0L234.28-1.61Q231.16 0.46 227.35 0.46L227.35 0.46Q222.29 0.46 219.24-2.08L219.24-2.08Q216.07-4.69 216.07-9.33L216.07-9.33Q216.07-13.43 219.22-16.06L219.22-16.06Q222.44-18.73 227.69-18.73L227.69-18.73Q231.21-18.73 234.28-17.38L234.28-17.38 234.28-24.1Q232.06-24.73 230.36-24.73 228.67-24.73 227.49-24.58 226.32-24.44 225.27-24.15L225.27-24.15Q223-23.51 221.83-22.44L221.83-22.44Q221.15-21.8 220.59-21.8 220.02-21.8 219.73-22.08 219.44-22.36 219.44-22.71 219.44-23.05 219.56-23.33 219.68-23.61 220.02-23.9L220.02-23.9Q220.76-24.54 222.47-25.17L222.47-25.17Q226.01-26.51 229.57-26.51L229.57-26.51Q240.41-26.51 243.41-21.34L243.41-21.34Q244.73-19.04 244.73-15.31L244.73-15.31 244.73 0 234.28 0ZM234.28-3.71L234.28-15.48Q231.21-16.97 228.15-16.97L228.15-16.97Q227.67-16.97 227.23-16.89L227.23-16.89 227.23-1.37Q227.35-1.34 227.49-1.34 227.64-1.34 227.79-1.34L227.79-1.34Q231.13-1.34 234.28-3.71L234.28-3.71ZM270.44 0L270.44-23.41Q269.83-23.8 269.12-23.8 268.41-23.8 267.65-23.47 266.9-23.14 266.07-22.56L266.07-22.56Q264.33-21.31 262.87-19.24L262.87-19.24 262.87 0 252.37 0 252.37-26.07 262.87-26.07 262.87-21.9Q267.04-26.51 272.32-26.51L272.32-26.51Q280.93-26.51 280.93-18.16L280.93-18.16 280.93 0 270.44 0ZM306.98 0L306.98-23.41Q306.37-23.8 305.66-23.8 304.96-23.8 304.2-23.47 303.44-23.14 302.61-22.56L302.61-22.56Q300.88-21.31 299.41-19.24L299.41-19.24 299.41 0 288.92 0 288.92-26.07 299.41-26.07 299.41-21.9Q303.59-26.51 308.86-26.51L308.86-26.51Q317.48-26.51 317.48-18.16L317.48-18.16 317.48 0 306.98 0ZM348.12-5.93L348.12-5.93Q349.07-5.93 349.07-5.05L349.07-5.05Q349.07-4.39 348.21-3.49L348.21-3.49Q344.36 0.46 337.64 0.46L337.64 0.46Q331.61 0.46 327.49-3.17L327.49-3.17Q323.21-6.96 323.21-12.74L323.21-12.74Q323.21-18.65 327.07-22.46L327.07-22.46Q331.15-26.51 337.91-26.51L337.91-26.51Q343.33-26.51 347.02-23.22L347.02-23.22Q351-19.68 351-13.92L351-13.92Q351-13.09 350.95-12.16L350.95-12.16 334.84-12.16 334.84-1.68Q336.5-1.34 338.57-1.34L338.57-1.34Q342.97-1.34 346.07-4.25L346.07-4.25Q346.7-4.88 346.97-5.25L346.97-5.25Q347.53-5.93 348.12-5.93ZM341.6-13.94L341.6-24.27Q340.01-24.73 338.01-24.73 336.01-24.73 334.84-24.46L334.84-24.46 334.84-13.94 341.6-13.94ZM357.2 0L357.2-26.07 367.69-26.07 367.69-18.41Q369.38-22.58 371.32-24.55 373.26-26.51 375.21-26.51L375.21-26.51Q376.31-26.51 376.96-25.94 377.61-25.37 377.61-24.66 377.61-23.95 377.41-23.54 377.22-23.12 376.9-22.83L376.9-22.83Q376.24-22.22 375.65-22.22L375.65-22.22Q374.73-22.22 374.29-22.41L374.29-22.41Q373.53-22.75 372.94-22.75 372.36-22.75 371.45-21.81 370.55-20.87 369.72-19.21L369.72-19.21Q367.69-15.16 367.69-10.42L367.69-10.42 367.69 0 357.2 0Z" opacity="1" transform="matrix(1,0,0,1,0,0)" fill="#000000" class="wordmark-text-0" data-fill-palette-color="primary" id="text-0"></path></svg></g></svg></g></svg></g></svg></g></svg></g></svg></g></svg></g><g mask="url(#f547fa37-0b00-4a0c-990d-0225f1b6bda9)"><g transform="matrix(4.778143695071807, 0, 0, 4.778143695071807, 96.2244464797241, 1.0000000000000142)"><svg xmlns="http://www.w3.org/2000/svg" xmlns:xlink="http://www.w3.org/1999/xlink" version="1.1" x="0" y="0" viewBox="19.263 15.172 42.5 51.31700000000001" enable-background="new 0 0 80 80" xml:space="preserve" height="51.31700000000001" width="42.5" class="icon-none" data-fill-palette-color="accent" id="none"><g fill="#d498ca" data-fill-palette-color="accent"><path d="M40.512 30.654c1.929 0 3.497-1.569 3.497-3.498s-1.568-3.498-3.497-3.498c-1.928 0-3.496 1.569-3.496 3.498S38.584 30.654 40.512 30.654zM40.512 25.658c0.825 0 1.497 0.672 1.497 1.498s-0.672 1.498-1.497 1.498-1.496-0.672-1.496-1.498S39.687 25.658 40.512 25.658z" fill="#000000" data-fill-palette-color="accent"></path><path d="M53.572 19.422v-2.25c0-1.104-0.896-2-2-2s-2 0.896-2 2v1.816H31.885v-1.816c0-1.104-0.896-2-2-2s-2 0.896-2 2v2.139c-4.938 1.188-8.622 5.631-8.622 10.928v25c0 6.203 5.047 11.25 11.25 11.25h20c6.203 0 11.25-5.047 11.25-11.25v-25C61.763 25.097 58.291 20.76 53.572 19.422zM27.885 21.893v1.279c0 1.104 0.896 2 2 2s2-0.896 2-2v-1.684h17.688v1.684c0 1.104 0.896 2 2 2s2-0.896 2-2v-1.121c3.318 1.244 5.69 4.439 5.69 8.188v2.25h-37.5v-2.25C21.763 26.328 24.34 23.012 27.885 21.893zM50.513 63.988h-20c-4.825 0-8.75-3.925-8.75-8.75v-18.75h37.5v18.75C59.263 60.063 55.338 63.988 50.513 63.988z" fill="#000000" data-fill-palette-color="accent"></path><path d="M29.274 46.604l1.57 0.647c0.124 0.051 0.254 0.075 0.381 0.075 0.393 0 0.766-0.233 0.925-0.619 0.21-0.511-0.033-1.095-0.544-1.306l-1.57-0.647c-0.507-0.208-1.095 0.034-1.306 0.544C28.521 45.81 28.764 46.394 29.274 46.604z" fill="#000000" data-fill-palette-color="accent"></path><path d="M36.063 40.911c0.16 0.383 0.531 0.613 0.922 0.613 0.129 0 0.261-0.024 0.387-0.078 0.51-0.213 0.749-0.799 0.535-1.309L37.25 38.57c-0.213-0.509-0.8-0.751-1.309-0.535-0.51 0.213-0.749 0.799-0.535 1.309L36.063 40.911z" fill="#000000" data-fill-palette-color="accent"></path><path d="M44.787 41.4c0.123 0.05 0.25 0.073 0.375 0.073 0.395 0 0.77-0.235 0.927-0.625l0.638-1.575c0.207-0.512-0.04-1.095-0.552-1.302-0.513-0.208-1.095 0.039-1.302 0.552l-0.638 1.575C44.028 40.61 44.275 41.193 44.787 41.4z" fill="#000000" data-fill-palette-color="accent"></path><path d="M50.993 47.203c0.131 0 0.264-0.025 0.392-0.08l1.564-0.666c0.508-0.216 0.745-0.804 0.528-1.312-0.217-0.509-0.803-0.746-1.312-0.528l-1.564 0.666c-0.508 0.216-0.745 0.804-0.528 1.312C50.235 46.976 50.604 47.203 50.993 47.203z" fill="#000000" data-fill-palette-color="accent"></path><path d="M53.038 54.081l-1.579-0.633c-0.514-0.205-1.095 0.044-1.301 0.557-0.205 0.513 0.044 1.095 0.557 1.301l1.579 0.633c0.122 0.049 0.248 0.071 0.372 0.071 0.396 0 0.771-0.237 0.929-0.628C53.8 54.869 53.551 54.287 53.038 54.081z" fill="#000000" data-fill-palette-color="accent"></path><path d="M46.307 59.842c-0.219-0.507-0.808-0.741-1.314-0.521-0.507 0.219-0.74 0.808-0.521 1.314l0.675 1.562c0.163 0.378 0.531 0.604 0.918 0.604 0.133 0 0.268-0.026 0.396-0.082 0.507-0.219 0.74-0.808 0.521-1.314L46.307 59.842z" fill="#000000" data-fill-palette-color="accent"></path><path d="M37.582 59.446c-0.516-0.2-1.095 0.051-1.298 0.563l-0.624 1.582c-0.202 0.514 0.05 1.095 0.563 1.298 0.121 0.047 0.245 0.069 0.367 0.069 0.398 0 0.775-0.24 0.931-0.633l0.624-1.582C38.348 60.23 38.096 59.649 37.582 59.446z" fill="#000000" data-fill-palette-color="accent"></path><path d="M30.923 53.792l-1.559 0.682c-0.506 0.221-0.737 0.811-0.516 1.316 0.164 0.376 0.531 0.6 0.917 0.6 0.133 0 0.27-0.026 0.399-0.084l1.559-0.682c0.506-0.221 0.737-0.811 0.516-1.316C32.019 53.803 31.431 53.567 30.923 53.792z" fill="#000000" data-fill-palette-color="accent"></path><path d="M45.916 56.39c0.101-0.302 0.136-0.608 0.142-0.91l0.017-0.001-0.246-9.803-0.008 0.001c0.062-1.342-0.753-2.617-2.087-3.059-1.334-0.442-2.75 0.096-3.5 1.208l-0.004-0.003-6.046 7.72 0.013 0.01c-0.176 0.246-0.33 0.514-0.431 0.815-0.527 1.595 0.332 3.316 1.914 3.861l-0.001 0.004 6.359 2.105c0.001 0 0.001 0 0.001 0C43.646 58.87 45.385 57.997 45.916 56.39zM42.171 45.399l0.018-0.022 0.008-0.012-0.001-0.002c0.107-0.307 0.442-0.475 0.752-0.372 0.311 0.103 0.479 0.438 0.382 0.749v0.002c-0.001 0.002 0 0.006-0.001 0.009-0.003 0.007-0.009 0.013-0.011 0.02l0.077 2.752c0.002-0.001 0.002-0.002 0.004-0.002l0.089 3.531-5.183-1.716L42.171 45.399zM43.563 55.441c-0.003 0.055-0.003 0.109-0.021 0.163-0.099 0.298-0.42 0.46-0.718 0.361 0 0 0 0-0.001-0.001l-2.858-0.945-0.606-0.201v-0.001l-2.854-0.944c-0.002-0.001-0.004 0-0.006-0.001s-0.002-0.002-0.004-0.003l-0.01-0.003-0.002-0.004c-0.285-0.104-0.441-0.417-0.345-0.708 0.026-0.082 0.072-0.151 0.129-0.21l-0.002-0.006 0.4-0.512 6.884 2.278 0.017 0.665c0.001 0.009 0 0.019 0.001 0.027l0.001 0.04L43.563 55.441z" fill="#000000" data-fill-palette-color="accent"></path></g></svg></g></g></svg></g><defs></defs></svg><rect width="395.52" height="247.2" fill="none" stroke="none" visibility="hidden"></rect></g></svg></g></svg>